<?xml version="1.0" encoding="UTF-8" standalone="no" ?>
<!DOCTYPE svg PUBLIC "-//W3C//DTD SVG 1.1//EN" "http://www.w3.org/Graphics/SVG/1.1/DTD/svg11.dtd">
<svg xmlns="http://www.w3.org/2000/svg" xmlns:xlink="http://www.w3.org/1999/xlink" version="1.1" width="370" height="360" viewBox="0 0 370 360" xml:space="preserve">
<desc>Created with https://svgeditoronline.com/</desc>
<rect width="100%" height="100%" fill="#6498d8" rx="20" ry="20"/>
<g transform="matrix(0.45 0 0 0.46 81.5 331.07)"  >
<polygon style="stroke: rgb(0,0,0); stroke-width: 0; stroke-dasharray: none; stroke-linecap: butt; stroke-dashoffset: 0; stroke-linejoin: miter; stroke-miterlimit: 4; fill: rgb(255,255,255); fill-rule: nonzero; opacity: 1;"  points="-50,-50 -50,50 50,50 50,-50 " />
</g>
<g transform="matrix(0.48 0 0 0.45 29.53 278.4)"  >
<polygon style="stroke: rgb(0,0,0); stroke-width: 0; stroke-dasharray: none; stroke-linecap: butt; stroke-dashoffset: 0; stroke-linejoin: miter; stroke-miterlimit: 4; fill: rgb(255,255,255); fill-rule: nonzero; opacity: 1;"  points="-50,-50 -50,50 50,50 50,-50 " />
</g>
<g transform="matrix(1 0 0 1 490 207.2)"  >
<g style=""   >
		<g transform="matrix(1 0 0 1 0 0)"  >
<circle style="stroke: none; stroke-width: 1; stroke-dasharray: none; stroke-linecap: butt; stroke-dashoffset: 0; stroke-linejoin: miter; stroke-miterlimit: 4; fill: rgb(255,255,255); fill-opacity: 0.36; fill-rule: nonzero; opacity: 1;"  cx="0" cy="0" r="6" />
</g>
</g>
</g>
<g transform="matrix(1 0 0 1 281.33 192.93)"  >
<g style=""   >
		<g transform="matrix(1 0 0 1 0 0)"  >
<circle style="stroke: none; stroke-width: 1; stroke-dasharray: none; stroke-linecap: butt; stroke-dashoffset: 0; stroke-linejoin: miter; stroke-miterlimit: 4; fill: rgb(255,255,255); fill-opacity: 0.91; fill-rule: nonzero; opacity: 1;"  cx="0" cy="0" r="0" />
</g>
</g>
</g>
<g transform="matrix(0.22 0 0 0.47 67.51 279.6)"  >
<polygon style="stroke: rgb(0,0,0); stroke-width: 0; stroke-dasharray: none; stroke-linecap: butt; stroke-dashoffset: 0; stroke-linejoin: miter; stroke-miterlimit: 4; fill: rgb(255,255,255); fill-rule: nonzero; opacity: 1;" vector-effect="non-scaling-stroke"  points="-50,-50 50,50 -50,50 " />
</g>
<g transform="matrix(0.46 0 0 0.24 79.51 290.77)"  >
<polygon style="stroke: rgb(0,0,0); stroke-width: 0; stroke-dasharray: none; stroke-linecap: butt; stroke-dashoffset: 0; stroke-linejoin: miter; stroke-miterlimit: 4; fill: rgb(255,255,255); fill-rule: nonzero; opacity: 1;"  points="-50,-50 50,50 -50,50 " />
</g>
<g transform="matrix(0.84 0 0 0.68 70.99 293.4)"  >
<g style=""   >
		<g transform="matrix(1 0 0 1 1.67 3)"  >
<circle style="stroke: none; stroke-width: 1; stroke-dasharray: none; stroke-linecap: butt; stroke-dashoffset: 0; stroke-linejoin: miter; stroke-miterlimit: 4; fill: rgb(255,255,255); fill-opacity: 0.06; fill-rule: nonzero; opacity: 1;"  cx="0" cy="0" r="1.5" />
</g>
		<g transform="matrix(1 0 0 1 1.67 2.67)"  >
<circle style="stroke: none; stroke-width: 1; stroke-dasharray: none; stroke-linecap: butt; stroke-dashoffset: 0; stroke-linejoin: miter; stroke-miterlimit: 4; fill: rgb(255,255,255); fill-opacity: 0.3; fill-rule: nonzero; opacity: 1;"  cx="0" cy="0" r="3" />
</g>
		<g transform="matrix(1 0 0 1 1.67 2.67)"  >
<circle style="stroke: none; stroke-width: 1; stroke-dasharray: none; stroke-linecap: butt; stroke-dashoffset: 0; stroke-linejoin: miter; stroke-miterlimit: 4; fill: rgb(255,255,255); fill-opacity: 0.71; fill-rule: nonzero; opacity: 1;"  cx="0" cy="0" r="7" />
</g>
		<g transform="matrix(1 0 0 1 1.67 2.33)"  >
<circle style="stroke: none; stroke-width: 1; stroke-dasharray: none; stroke-linecap: butt; stroke-dashoffset: 0; stroke-linejoin: miter; stroke-miterlimit: 4; fill: rgb(255,255,255); fill-opacity: 0.31; fill-rule: nonzero; opacity: 1;"  cx="0" cy="0" r="0.5" />
</g>
		<g transform="matrix(1 0 0 1 1.67 2)"  >
<circle style="stroke: none; stroke-width: 1; stroke-dasharray: none; stroke-linecap: butt; stroke-dashoffset: 0; stroke-linejoin: miter; stroke-miterlimit: 4; fill: rgb(255,255,255); fill-opacity: 0.02; fill-rule: nonzero; opacity: 1;"  cx="0" cy="0" r="4" />
</g>
		<g transform="matrix(1 0 0 1 1.67 1.67)"  >
<circle style="stroke: none; stroke-width: 1; stroke-dasharray: none; stroke-linecap: butt; stroke-dashoffset: 0; stroke-linejoin: miter; stroke-miterlimit: 4; fill: rgb(255,255,255); fill-opacity: 0.58; fill-rule: nonzero; opacity: 1;"  cx="0" cy="0" r="2.5" />
</g>
		<g transform="matrix(1 0 0 1 1.67 1.33)"  >
<circle style="stroke: none; stroke-width: 1; stroke-dasharray: none; stroke-linecap: butt; stroke-dashoffset: 0; stroke-linejoin: miter; stroke-miterlimit: 4; fill: rgb(255,255,255); fill-opacity: 0.97; fill-rule: nonzero; opacity: 1;"  cx="0" cy="0" r="0.5" />
</g>
		<g transform="matrix(1 0 0 1 1.67 1.33)"  >
<circle style="stroke: none; stroke-width: 1; stroke-dasharray: none; stroke-linecap: butt; stroke-dashoffset: 0; stroke-linejoin: miter; stroke-miterlimit: 4; fill: rgb(255,255,255); fill-opacity: 0.06; fill-rule: nonzero; opacity: 1;"  cx="0" cy="0" r="5.5" />
</g>
		<g transform="matrix(1 0 0 1 1.67 1.33)"  >
<circle style="stroke: none; stroke-width: 1; stroke-dasharray: none; stroke-linecap: butt; stroke-dashoffset: 0; stroke-linejoin: miter; stroke-miterlimit: 4; fill: rgb(255,255,255); fill-opacity: 0.47; fill-rule: nonzero; opacity: 1;"  cx="0" cy="0" r="5" />
</g>
		<g transform="matrix(1 0 0 1 1.67 1)"  >
<circle style="stroke: none; stroke-width: 1; stroke-dasharray: none; stroke-linecap: butt; stroke-dashoffset: 0; stroke-linejoin: miter; stroke-miterlimit: 4; fill: rgb(255,255,255); fill-opacity: 0.3; fill-rule: nonzero; opacity: 1;"  cx="0" cy="0" r="11" />
</g>
		<g transform="matrix(1 0 0 1 1.67 0.67)"  >
<circle style="stroke: none; stroke-width: 1; stroke-dasharray: none; stroke-linecap: butt; stroke-dashoffset: 0; stroke-linejoin: miter; stroke-miterlimit: 4; fill: rgb(255,255,255); fill-opacity: 0.12; fill-rule: nonzero; opacity: 1;"  cx="0" cy="0" r="7" />
</g>
		<g transform="matrix(1 0 0 1 1.67 0.67)"  >
<circle style="stroke: none; stroke-width: 1; stroke-dasharray: none; stroke-linecap: butt; stroke-dashoffset: 0; stroke-linejoin: miter; stroke-miterlimit: 4; fill: rgb(255,255,255); fill-opacity: 0.84; fill-rule: nonzero; opacity: 1;"  cx="0" cy="0" r="5.5" />
</g>
		<g transform="matrix(1 0 0 1 1.33 0.67)"  >
<circle style="stroke: none; stroke-width: 1; stroke-dasharray: none; stroke-linecap: butt; stroke-dashoffset: 0; stroke-linejoin: miter; stroke-miterlimit: 4; fill: rgb(255,255,255); fill-opacity: 0.68; fill-rule: nonzero; opacity: 1;"  cx="0" cy="0" r="5" />
</g>
		<g transform="matrix(1 0 0 1 1.33 0.33)"  >
<circle style="stroke: none; stroke-width: 1; stroke-dasharray: none; stroke-linecap: butt; stroke-dashoffset: 0; stroke-linejoin: miter; stroke-miterlimit: 4; fill: rgb(255,255,255); fill-opacity: 0.62; fill-rule: nonzero; opacity: 1;"  cx="0" cy="0" r="0" />
</g>
		<g transform="matrix(1 0 0 1 1 0.33)"  >
<circle style="stroke: none; stroke-width: 1; stroke-dasharray: none; stroke-linecap: butt; stroke-dashoffset: 0; stroke-linejoin: miter; stroke-miterlimit: 4; fill: rgb(255,255,255); fill-opacity: 0.14; fill-rule: nonzero; opacity: 1;"  cx="0" cy="0" r="10" />
</g>
		<g transform="matrix(1 0 0 1 0.67 0)"  >
<circle style="stroke: none; stroke-width: 1; stroke-dasharray: none; stroke-linecap: butt; stroke-dashoffset: 0; stroke-linejoin: miter; stroke-miterlimit: 4; fill: rgb(255,255,255); fill-opacity: 0.78; fill-rule: nonzero; opacity: 1;"  cx="0" cy="0" r="6.5" />
</g>
		<g transform="matrix(1 0 0 1 0.33 0)"  >
<circle style="stroke: none; stroke-width: 1; stroke-dasharray: none; stroke-linecap: butt; stroke-dashoffset: 0; stroke-linejoin: miter; stroke-miterlimit: 4; fill: rgb(255,255,255); fill-opacity: 0.68; fill-rule: nonzero; opacity: 1;"  cx="0" cy="0" r="1.5" />
</g>
		<g transform="matrix(1 0 0 1 0.33 0)"  >
<circle style="stroke: none; stroke-width: 1; stroke-dasharray: none; stroke-linecap: butt; stroke-dashoffset: 0; stroke-linejoin: miter; stroke-miterlimit: 4; fill: rgb(255,255,255); fill-opacity: 0.87; fill-rule: nonzero; opacity: 1;"  cx="0" cy="0" r="5.5" />
</g>
		<g transform="matrix(1 0 0 1 0 0)"  >
<circle style="stroke: none; stroke-width: 1; stroke-dasharray: none; stroke-linecap: butt; stroke-dashoffset: 0; stroke-linejoin: miter; stroke-miterlimit: 4; fill: rgb(255,255,255); fill-opacity: 0.51; fill-rule: nonzero; opacity: 1;"  cx="0" cy="0" r="3" />
</g>
		<g transform="matrix(1 0 0 1 -0.33 0)"  >
<circle style="stroke: none; stroke-width: 1; stroke-dasharray: none; stroke-linecap: butt; stroke-dashoffset: 0; stroke-linejoin: miter; stroke-miterlimit: 4; fill: rgb(255,255,255); fill-opacity: 0.29; fill-rule: nonzero; opacity: 1;"  cx="0" cy="0" r="4.5" />
</g>
		<g transform="matrix(1 0 0 1 -0.67 0)"  >
<circle style="stroke: none; stroke-width: 1; stroke-dasharray: none; stroke-linecap: butt; stroke-dashoffset: 0; stroke-linejoin: miter; stroke-miterlimit: 4; fill: rgb(255,255,255); fill-opacity: 0.87; fill-rule: nonzero; opacity: 1;"  cx="0" cy="0" r="12" />
</g>
		<g transform="matrix(1 0 0 1 -0.67 0.33)"  >
<circle style="stroke: none; stroke-width: 1; stroke-dasharray: none; stroke-linecap: butt; stroke-dashoffset: 0; stroke-linejoin: miter; stroke-miterlimit: 4; fill: rgb(255,255,255); fill-opacity: 0.75; fill-rule: nonzero; opacity: 1;"  cx="0" cy="0" r="1.5" />
</g>
		<g transform="matrix(1 0 0 1 -0.67 0.67)"  >
<circle style="stroke: none; stroke-width: 1; stroke-dasharray: none; stroke-linecap: butt; stroke-dashoffset: 0; stroke-linejoin: miter; stroke-miterlimit: 4; fill: rgb(255,255,255); fill-opacity: 0.91; fill-rule: nonzero; opacity: 1;"  cx="0" cy="0" r="7" />
</g>
		<g transform="matrix(1 0 0 1 -1 1)"  >
<circle style="stroke: none; stroke-width: 1; stroke-dasharray: none; stroke-linecap: butt; stroke-dashoffset: 0; stroke-linejoin: miter; stroke-miterlimit: 4; fill: rgb(255,255,255); fill-opacity: 0.6; fill-rule: nonzero; opacity: 1;"  cx="0" cy="0" r="4" />
</g>
		<g transform="matrix(1 0 0 1 -1 1.33)"  >
<circle style="stroke: none; stroke-width: 1; stroke-dasharray: none; stroke-linecap: butt; stroke-dashoffset: 0; stroke-linejoin: miter; stroke-miterlimit: 4; fill: rgb(255,255,255); fill-opacity: 0.16; fill-rule: nonzero; opacity: 1;"  cx="0" cy="0" r="0.5" />
</g>
		<g transform="matrix(1 0 0 1 -1.33 1.33)"  >
<circle style="stroke: none; stroke-width: 1; stroke-dasharray: none; stroke-linecap: butt; stroke-dashoffset: 0; stroke-linejoin: miter; stroke-miterlimit: 4; fill: rgb(255,255,255); fill-opacity: 0.58; fill-rule: nonzero; opacity: 1;"  cx="0" cy="0" r="3" />
</g>
		<g transform="matrix(1 0 0 1 -1.67 1.67)"  >
<circle style="stroke: none; stroke-width: 1; stroke-dasharray: none; stroke-linecap: butt; stroke-dashoffset: 0; stroke-linejoin: miter; stroke-miterlimit: 4; fill: rgb(255,255,255); fill-opacity: 0.16; fill-rule: nonzero; opacity: 1;"  cx="0" cy="0" r="3.5" />
</g>
		<g transform="matrix(1 0 0 1 -2 1.67)"  >
<circle style="stroke: none; stroke-width: 1; stroke-dasharray: none; stroke-linecap: butt; stroke-dashoffset: 0; stroke-linejoin: miter; stroke-miterlimit: 4; fill: rgb(255,255,255); fill-opacity: 0.31; fill-rule: nonzero; opacity: 1;"  cx="0" cy="0" r="0.5" />
</g>
</g>
</g>
<g transform="matrix(0.78 0 0 0.78 65.54 288.78)"  >
<g style=""   >
		<g transform="matrix(1 0 0 1 -0.5 0.33)"  >
<circle style="stroke: none; stroke-width: 1; stroke-dasharray: none; stroke-linecap: butt; stroke-dashoffset: 0; stroke-linejoin: miter; stroke-miterlimit: 4; fill: rgb(255,255,255); fill-opacity: 0.98; fill-rule: nonzero; opacity: 1;"  cx="0" cy="0" r="1.5" />
</g>
		<g transform="matrix(1 0 0 1 -0.17 0.33)"  >
<circle style="stroke: none; stroke-width: 1; stroke-dasharray: none; stroke-linecap: butt; stroke-dashoffset: 0; stroke-linejoin: miter; stroke-miterlimit: 4; fill: rgb(255,255,255); fill-opacity: 0.06; fill-rule: nonzero; opacity: 1;"  cx="0" cy="0" r="9.5" />
</g>
		<g transform="matrix(1 0 0 1 0.17 0)"  >
<circle style="stroke: none; stroke-width: 1; stroke-dasharray: none; stroke-linecap: butt; stroke-dashoffset: 0; stroke-linejoin: miter; stroke-miterlimit: 4; fill: rgb(255,255,255); fill-opacity: 0.51; fill-rule: nonzero; opacity: 1;"  cx="0" cy="0" r="11.5" />
</g>
		<g transform="matrix(1 0 0 1 0.17 -0.33)"  >
<circle style="stroke: none; stroke-width: 1; stroke-dasharray: none; stroke-linecap: butt; stroke-dashoffset: 0; stroke-linejoin: miter; stroke-miterlimit: 4; fill: rgb(255,255,255); fill-opacity: 0.54; fill-rule: nonzero; opacity: 1;"  cx="0" cy="0" r="10" />
</g>
		<g transform="matrix(1 0 0 1 0.17 -0.33)"  >
<circle style="stroke: none; stroke-width: 1; stroke-dasharray: none; stroke-linecap: butt; stroke-dashoffset: 0; stroke-linejoin: miter; stroke-miterlimit: 4; fill: rgb(255,255,255); fill-opacity: 0.44; fill-rule: nonzero; opacity: 1;"  cx="0" cy="0" r="9.5" />
</g>
		<g transform="matrix(1 0 0 1 0.17 -0.67)"  >
<circle style="stroke: none; stroke-width: 1; stroke-dasharray: none; stroke-linecap: butt; stroke-dashoffset: 0; stroke-linejoin: miter; stroke-miterlimit: 4; fill: rgb(255,255,255); fill-opacity: 0.55; fill-rule: nonzero; opacity: 1;"  cx="0" cy="0" r="0.5" />
</g>
		<g transform="matrix(1 0 0 1 0.17 -0.33)"  >
<circle style="stroke: none; stroke-width: 1; stroke-dasharray: none; stroke-linecap: butt; stroke-dashoffset: 0; stroke-linejoin: miter; stroke-miterlimit: 4; fill: rgb(255,255,255); fill-opacity: 0.21; fill-rule: nonzero; opacity: 1;"  cx="0" cy="0" r="7" />
</g>
		<g transform="matrix(1 0 0 1 0.17 -0.33)"  >
<circle style="stroke: none; stroke-width: 1; stroke-dasharray: none; stroke-linecap: butt; stroke-dashoffset: 0; stroke-linejoin: miter; stroke-miterlimit: 4; fill: rgb(255,255,255); fill-opacity: 0.25; fill-rule: nonzero; opacity: 1;"  cx="0" cy="0" r="8" />
</g>
		<g transform="matrix(1 0 0 1 -0.17 -0.33)"  >
<circle style="stroke: none; stroke-width: 1; stroke-dasharray: none; stroke-linecap: butt; stroke-dashoffset: 0; stroke-linejoin: miter; stroke-miterlimit: 4; fill: rgb(255,255,255); fill-opacity: 0.06; fill-rule: nonzero; opacity: 1;"  cx="0" cy="0" r="8.5" />
</g>
		<g transform="matrix(1 0 0 1 -0.17 0)"  >
<circle style="stroke: none; stroke-width: 1; stroke-dasharray: none; stroke-linecap: butt; stroke-dashoffset: 0; stroke-linejoin: miter; stroke-miterlimit: 4; fill: rgb(255,255,255); fill-opacity: 0.65; fill-rule: nonzero; opacity: 1;"  cx="0" cy="0" r="11.5" />
</g>
		<g transform="matrix(1 0 0 1 -0.17 0.33)"  >
<circle style="stroke: none; stroke-width: 1; stroke-dasharray: none; stroke-linecap: butt; stroke-dashoffset: 0; stroke-linejoin: miter; stroke-miterlimit: 4; fill: rgb(255,255,255); fill-opacity: 0.07; fill-rule: nonzero; opacity: 1;"  cx="0" cy="0" r="6" />
</g>
</g>
</g>
<g transform="matrix(0.53 0 0 0.66 64.54 282.62)"  >
<g style=""   >
		<g transform="matrix(1 0 0 1 2.33 1.5)"  >
<circle style="stroke: none; stroke-width: 1; stroke-dasharray: none; stroke-linecap: butt; stroke-dashoffset: 0; stroke-linejoin: miter; stroke-miterlimit: 4; fill: rgb(255,255,255); fill-opacity: 0.46; fill-rule: nonzero; opacity: 1;"  cx="0" cy="0" r="4" />
</g>
		<g transform="matrix(1 0 0 1 2.33 1.5)"  >
<circle style="stroke: none; stroke-width: 1; stroke-dasharray: none; stroke-linecap: butt; stroke-dashoffset: 0; stroke-linejoin: miter; stroke-miterlimit: 4; fill: rgb(255,255,255); fill-opacity: 0.85; fill-rule: nonzero; opacity: 1;"  cx="0" cy="0" r="8.5" />
</g>
		<g transform="matrix(1 0 0 1 1.67 1.5)"  >
<circle style="stroke: none; stroke-width: 1; stroke-dasharray: none; stroke-linecap: butt; stroke-dashoffset: 0; stroke-linejoin: miter; stroke-miterlimit: 4; fill: rgb(255,255,255); fill-opacity: 0.76; fill-rule: nonzero; opacity: 1;"  cx="0" cy="0" r="2" />
</g>
		<g transform="matrix(1 0 0 1 1.67 1.17)"  >
<circle style="stroke: none; stroke-width: 1; stroke-dasharray: none; stroke-linecap: butt; stroke-dashoffset: 0; stroke-linejoin: miter; stroke-miterlimit: 4; fill: rgb(255,255,255); fill-opacity: 0.74; fill-rule: nonzero; opacity: 1;"  cx="0" cy="0" r="0.5" />
</g>
		<g transform="matrix(1 0 0 1 1.67 0.83)"  >
<circle style="stroke: none; stroke-width: 1; stroke-dasharray: none; stroke-linecap: butt; stroke-dashoffset: 0; stroke-linejoin: miter; stroke-miterlimit: 4; fill: rgb(255,255,255); fill-opacity: 0.73; fill-rule: nonzero; opacity: 1;"  cx="0" cy="0" r="2" />
</g>
		<g transform="matrix(1 0 0 1 1.33 0.83)"  >
<circle style="stroke: none; stroke-width: 1; stroke-dasharray: none; stroke-linecap: butt; stroke-dashoffset: 0; stroke-linejoin: miter; stroke-miterlimit: 4; fill: rgb(255,255,255); fill-opacity: 0.67; fill-rule: nonzero; opacity: 1;"  cx="0" cy="0" r="0" />
</g>
		<g transform="matrix(1 0 0 1 1 0.5)"  >
<circle style="stroke: none; stroke-width: 1; stroke-dasharray: none; stroke-linecap: butt; stroke-dashoffset: 0; stroke-linejoin: miter; stroke-miterlimit: 4; fill: rgb(255,255,255); fill-opacity: 0.43; fill-rule: nonzero; opacity: 1;"  cx="0" cy="0" r="7.5" />
</g>
		<g transform="matrix(1 0 0 1 1 0.5)"  >
<circle style="stroke: none; stroke-width: 1; stroke-dasharray: none; stroke-linecap: butt; stroke-dashoffset: 0; stroke-linejoin: miter; stroke-miterlimit: 4; fill: rgb(255,255,255); fill-opacity: 0; fill-rule: nonzero; opacity: 1;"  cx="0" cy="0" r="7.5" />
</g>
		<g transform="matrix(1 0 0 1 0.67 0.5)"  >
<circle style="stroke: none; stroke-width: 1; stroke-dasharray: none; stroke-linecap: butt; stroke-dashoffset: 0; stroke-linejoin: miter; stroke-miterlimit: 4; fill: rgb(255,255,255); fill-opacity: 0.16; fill-rule: nonzero; opacity: 1;"  cx="0" cy="0" r="11" />
</g>
		<g transform="matrix(1 0 0 1 0.33 0.5)"  >
<circle style="stroke: none; stroke-width: 1; stroke-dasharray: none; stroke-linecap: butt; stroke-dashoffset: 0; stroke-linejoin: miter; stroke-miterlimit: 4; fill: rgb(255,255,255); fill-opacity: 0.36; fill-rule: nonzero; opacity: 1;"  cx="0" cy="0" r="12" />
</g>
		<g transform="matrix(1 0 0 1 0.33 0.17)"  >
<circle style="stroke: none; stroke-width: 1; stroke-dasharray: none; stroke-linecap: butt; stroke-dashoffset: 0; stroke-linejoin: miter; stroke-miterlimit: 4; fill: rgb(255,255,255); fill-opacity: 0.15; fill-rule: nonzero; opacity: 1;"  cx="0" cy="0" r="9.5" />
</g>
		<g transform="matrix(1 0 0 1 0 0.17)"  >
<circle style="stroke: none; stroke-width: 1; stroke-dasharray: none; stroke-linecap: butt; stroke-dashoffset: 0; stroke-linejoin: miter; stroke-miterlimit: 4; fill: rgb(255,255,255); fill-opacity: 0.51; fill-rule: nonzero; opacity: 1;"  cx="0" cy="0" r="10" />
</g>
		<g transform="matrix(1 0 0 1 0 -0.17)"  >
<circle style="stroke: none; stroke-width: 1; stroke-dasharray: none; stroke-linecap: butt; stroke-dashoffset: 0; stroke-linejoin: miter; stroke-miterlimit: 4; fill: rgb(255,255,255); fill-opacity: 0.59; fill-rule: nonzero; opacity: 1;"  cx="0" cy="0" r="4" />
</g>
		<g transform="matrix(1 0 0 1 -0.33 -0.17)"  >
<circle style="stroke: none; stroke-width: 1; stroke-dasharray: none; stroke-linecap: butt; stroke-dashoffset: 0; stroke-linejoin: miter; stroke-miterlimit: 4; fill: rgb(255,255,255); fill-opacity: 0.72; fill-rule: nonzero; opacity: 1;"  cx="0" cy="0" r="7.5" />
</g>
		<g transform="matrix(1 0 0 1 -0.33 -0.5)"  >
<circle style="stroke: none; stroke-width: 1; stroke-dasharray: none; stroke-linecap: butt; stroke-dashoffset: 0; stroke-linejoin: miter; stroke-miterlimit: 4; fill: rgb(255,255,255); fill-opacity: 0.13; fill-rule: nonzero; opacity: 1;"  cx="0" cy="0" r="12" />
</g>
		<g transform="matrix(1 0 0 1 -0.33 -0.5)"  >
<circle style="stroke: none; stroke-width: 1; stroke-dasharray: none; stroke-linecap: butt; stroke-dashoffset: 0; stroke-linejoin: miter; stroke-miterlimit: 4; fill: rgb(255,255,255); fill-opacity: 0.6; fill-rule: nonzero; opacity: 1;"  cx="0" cy="0" r="7" />
</g>
</g>
</g>
<g transform="matrix(0.5 0 0 0.48 82.55 279.75)"  >
<polygon style="stroke: rgb(0,0,0); stroke-width: 0; stroke-dasharray: none; stroke-linecap: butt; stroke-dashoffset: 0; stroke-linejoin: miter; stroke-miterlimit: 4; fill: rgb(255,255,255); fill-rule: nonzero; opacity: 1;" vector-effect="non-scaling-stroke"  points="-50,-50 -50,50 50,50 50,-50 " />
</g>
<g transform="matrix(1.86 0 0 0.48 202.55 278)"  >
<polygon style="stroke: rgb(0,0,0); stroke-width: 0; stroke-dasharray: none; stroke-linecap: butt; stroke-dashoffset: 0; stroke-linejoin: miter; stroke-miterlimit: 4; fill: rgb(255,255,255); fill-rule: nonzero; opacity: 1;" vector-effect="non-scaling-stroke"  points="-50,-50 -50,50 50,50 50,-50 " />
</g>
<g transform="matrix(0.34 0 0 0.48 336.05 278.5)"  >
<polygon style="stroke: rgb(0,0,0); stroke-width: 0; stroke-dasharray: none; stroke-linecap: butt; stroke-dashoffset: 0; stroke-linejoin: miter; stroke-miterlimit: 4; fill: rgb(255,255,255); fill-rule: nonzero; opacity: 1;"  points="-50,-50 -50,50 50,50 50,-50 " />
</g>
<g transform="matrix(0.34 0 0 0.28 308 277.75)"  >
<polygon style="stroke: rgb(0,0,0); stroke-width: 0; stroke-dasharray: none; stroke-linecap: butt; stroke-dashoffset: 0; stroke-linejoin: miter; stroke-miterlimit: 4; fill: rgb(255,255,255); fill-rule: nonzero; opacity: 1;"  points="-50,-50 -50,50 50,50 50,-50 " />
</g>
<g transform="matrix(0.14 0 0 0.33 356.8 276.75)"  >
<polygon style="stroke: rgb(0,0,0); stroke-width: 0; stroke-dasharray: none; stroke-linecap: butt; stroke-dashoffset: 0; stroke-linejoin: miter; stroke-miterlimit: 4; fill: rgb(255,255,255); fill-rule: nonzero; opacity: 1;"  points="-50,-50 -50,50 50,50 50,-50 " />
</g>
<g transform="matrix(0.09 0 0 0.41 354.05 278)"  >
<polygon style="stroke: rgb(0,0,0); stroke-width: 0; stroke-dasharray: none; stroke-linecap: butt; stroke-dashoffset: 0; stroke-linejoin: miter; stroke-miterlimit: 4; fill: rgb(255,255,255); fill-rule: nonzero; opacity: 1;"  points="-50,-50 -50,50 50,50 50,-50 " />
</g>
<g transform="matrix(0.49 0 0 1.78 81.3 165.25)"  >
<polygon style="stroke: rgb(0,0,0); stroke-width: 0; stroke-dasharray: none; stroke-linecap: butt; stroke-dashoffset: 0; stroke-linejoin: miter; stroke-miterlimit: 4; fill: rgb(255,255,255); fill-rule: nonzero; opacity: 1;" vector-effect="non-scaling-stroke"  points="-50,-50 -50,50 50,50 50,-50 " />
</g>
<g transform="matrix(0.49 0 0 0.31 81.5 37)"  >
<polygon style="stroke: rgb(0,0,0); stroke-width: 0; stroke-dasharray: none; stroke-linecap: butt; stroke-dashoffset: 0; stroke-linejoin: miter; stroke-miterlimit: 4; fill: rgb(255,255,255); fill-rule: nonzero; opacity: 1;"  points="-50,-50 -50,50 50,50 50,-50 " />
</g>
<g transform="matrix(0.27 0 0 0.31 81.6 22)"  >
<polygon style="stroke: rgb(0,0,0); stroke-width: 0; stroke-dasharray: none; stroke-linecap: butt; stroke-dashoffset: 0; stroke-linejoin: miter; stroke-miterlimit: 4; fill: rgb(255,255,255); fill-rule: nonzero; opacity: 1;"  points="-50,-50 -50,50 50,50 50,-50 " />
</g>
<g transform="matrix(0.41 0 0 0.13 81.55 19.25)"  >
<polygon style="stroke: rgb(0,0,0); stroke-width: 0; stroke-dasharray: none; stroke-linecap: butt; stroke-dashoffset: 0; stroke-linejoin: miter; stroke-miterlimit: 4; fill: rgb(255,255,255); fill-rule: nonzero; opacity: 1;"  points="-50,-50 -50,50 50,50 50,-50 " />
</g>
<g transform="matrix(0.27 0 0 0.31 81 65)"  >
<polygon style="stroke: rgb(0,0,0); stroke-width: 0; stroke-dasharray: none; stroke-linecap: butt; stroke-dashoffset: 0; stroke-linejoin: miter; stroke-miterlimit: 4; fill: rgb(255,255,255); fill-rule: nonzero; opacity: 1;"  points="-50,-50 -50,50 50,50 50,-50 " />
</g>
<g transform="matrix(0.13 0 0 -0.13 185 179.42)"  >
<path style="stroke: none; stroke-width: 1; stroke-dasharray: none; stroke-linecap: butt; stroke-dashoffset: 0; stroke-linejoin: miter; stroke-miterlimit: 4; fill: rgb(0,0,0); fill-rule: nonzero; opacity: 1;"  transform=" translate(-1454.88, -1414.26)" d="M 574 2756 c -94 -44 -124 -109 -124 -269 l 0 -97 l 30 -7 c 38 -7 70 -46 70 -85 c 0 -35 -48 -88 -79 -88 l -21 0 l 0 -675 l 0 -675 l -205 0 l -205 0 l 0 -205 l 0 -205 l 205 0 l 205 0 l 0 -200 l 0 -200 l 210 0 l 210 0 l 0 200 l 0 200 l 720 0 l 720 0 l 0 23 c 0 56 63 95 117 72 c 34 -14 53 -41 53 -75 c 0 -21 3 -22 129 -18 c 125 3 131 4 173 33 c 126 88 114 280 -21 352 c -39 20 -58 23 -163 23 c -110 0 -118 -1 -118 -19 c 0 -11 -10 -32 -23 -46 c -33 -39 -91 -39 -123 -1 c -13 15 -24 36 -24 47 c 0 18 -10 19 -398 19 l -397 0 l 3 108 c 4 95 1 116 -22 186 c -48 141 -143 252 -270 315 c -84 41 -149 54 -262 49 l -94 -3 l 0 348 l 0 347 l -26 0 c -36 0 -84 50 -84 88 c 0 41 33 78 75 86 l 35 7 l 0 97 c 0 157 -28 218 -119 265 c -67 33 -110 34 -177 3 z m 171 -39 c 64 -36 85 -84 85 -197 l 0 -95 l -32 -15 c -97 -46 -97 -174 0 -220 l 32 -15 l 0 -652 l 0 -653 l -170 0 l -170 0 l 0 653 l 1 652 l 32 20 c 41 26 71 85 62 124 c -8 38 -41 80 -71 91 c -23 9 -24 14 -24 107 c 0 83 4 104 23 138 c 29 51 88 85 147 85 c 28 0 60 -9 85 -23 z m 501 -1463 c 33 -35 45 -74 23 -74 c -7 0 -31 20 -55 44 c -24 24 -44 48 -44 55 c 0 24 44 9 76 -25 z m -811 -599 l 0 -170 l -177 -3 l -178 -2 l 0 175 l 0 175 l 178 -2 l 177 -3 l 0 -170 z m 80 99 c 52 -106 137 -189 246 -243 l 84 -41 l -187 0 l -188 0 l 0 180 c 0 99 2 180 3 180 c 2 0 21 -34 42 -76 z m 1773 42 c 31 -52 64 -70 118 -63 c 48 5 78 25 101 71 l 15 29 l 99 -5 c 85 -4 104 -8 138 -31 c 91 -60 104 -186 27 -263 c -40 -40 -89 -54 -187 -54 l -75 0 l -17 35 c -20 41 -70 75 -112 75 c -43 0 -94 -35 -111 -75 l -14 -35 l -695 0 l -695 0 l 0 175 l 0 175 l 694 0 l 694 0 l 20 -34 z m -1458 -546 l 0 -180 l -170 0 l -170 0 l 0 180 l 0 180 l 170 0 l 170 0 l 0 -180 z" stroke-linecap="round" />
</g>
</svg>